<svg width="263" height="60" viewBox="0 0 263 60" fill="none" xmlns="http://www.w3.org/2000/svg">
<path d="M38 36.7289L45.8254 35.9916C46.2964 38.5372 47.2474 40.4071 48.6784 41.6009C50.1275 42.7948 52.0749 43.3916 54.5203 43.3916C57.1107 43.3916 59.0579 42.865 60.3622 41.8116C61.6845 40.7407 62.3457 39.4941 62.3457 38.072C62.3457 37.159 62.065 36.3866 61.5034 35.7545C60.96 35.105 59.9999 34.5432 58.6232 34.0691C57.6813 33.7531 55.5347 33.1913 52.1835 32.3837C47.8723 31.3478 44.8472 30.075 43.1083 28.5651C40.6628 26.4407 39.4401 23.8512 39.4401 20.7964C39.4401 18.83 40.0107 16.9954 41.1519 15.2924C42.3112 13.5718 43.9687 12.2639 46.1243 11.3685C48.298 10.4731 50.9155 10.0254 53.9768 10.0254C58.9765 10.0254 62.7351 11.0876 65.2531 13.2119C67.7891 15.3363 69.1205 18.1716 69.2473 21.7181L61.2045 22.0604C60.8603 20.0765 60.1176 18.6544 58.9765 17.7942C57.8534 16.9163 56.1596 16.4774 53.8954 16.4774C51.5586 16.4774 49.7291 16.9427 48.4067 17.8732C47.5553 18.4701 47.1296 19.2689 47.1296 20.2696C47.1296 21.1826 47.5282 21.9639 48.3252 22.6134C49.3396 23.4386 51.8031 24.2989 55.7158 25.1943C59.6285 26.0897 62.5178 27.0201 64.3836 27.9858C66.2674 28.9338 67.7348 30.2418 68.7854 31.9097C69.8541 33.56 70.3885 35.6054 70.3885 38.0457C70.3885 40.2578 69.7545 42.3295 68.4865 44.2607C67.2185 46.1919 65.4252 47.6316 63.1065 48.5796C60.7879 49.5102 57.8986 49.9754 54.4388 49.9754C49.403 49.9754 45.5356 48.8517 42.8365 46.6046C40.1375 44.3397 38.5253 41.0479 38 36.7289Z" fill="#EA0000"/>
<path d="M77.0455 49.2907V10.6838H89.0826L96.3101 37.0187L103.456 10.6838H115.52V49.2907H108.048V18.9002L100.141 49.2907H92.3974L84.5177 18.9002V49.2907H77.0455Z" fill="#EA0000"/>
<path d="M159.43 49.2907H150.68L147.202 40.5211H131.28L127.992 49.2907H119.46L134.975 10.6838H143.48L159.43 49.2907ZM144.621 34.0164L139.132 19.6902L133.753 34.0164H144.621Z" fill="#EA0000"/>
<path d="M163.94 49.2907V10.9998H171.983V42.786H191.982V49.2907H163.94Z" fill="#EA0000"/>
<path d="M197.959 49.2907V10.9998H206.002V42.786H226V49.2907H197.959Z" fill="#EA0000"/>
</svg>
