<svg width="207" height="60" viewBox="0 0 207 60" fill="none" xmlns="http://www.w3.org/2000/svg">
<g clip-path="url(#clip0_173_511)">
<path d="M204.261 43.789C204.239 40.3447 204.261 29.2521 204.261 29.2521C204.261 29.2521 204.194 26.1688 200.918 24.5858C200.918 24.5858 198.828 23.5066 195.981 24.2248C193.127 24.943 190.875 28.0489 190.747 28.094C190.623 28.1316 190.747 24.2473 190.747 24.2473L183.678 26.8682V27.5864C183.678 27.5864 186.679 26.5711 186.761 28.9814V44.6576C186.761 44.6576 186.833 47.2258 184.08 47.0754V47.7898H194.011V47.0491C194.011 47.0491 191.044 47.4401 190.999 44.5486C190.954 41.6758 190.999 32.4182 190.999 32.4182C190.999 32.4182 190.92 29.0002 193.8 27.5601C193.8 27.5601 195.996 26.1462 198.444 27.6465C198.444 27.6465 199.963 28.4249 200.031 31.151C200.091 33.8809 200.031 44.2327 200.031 44.2327C200.031 44.2327 200.497 47.0265 197.309 47.0491V47.7898H207.292V47.0792C207.299 47.0792 204.28 47.2333 204.261 43.789ZM139.737 39.0775C139.737 39.0775 138.518 40.9989 138.304 41.1456C138.304 41.1456 135.837 44.4658 132.37 44.526C128.896 44.5899 126.824 42.6722 125.459 39.6866C124.087 36.7011 124.361 33.4711 124.361 33.4711H140.071C140.071 33.4711 139.492 28.5678 136.326 25.8642C133.16 23.1531 129.599 24.0368 128.715 24.3413C127.836 24.6459 124.726 25.4995 122.109 30.5532C122.109 30.5532 120.191 34.2983 120.954 39.5926C120.954 39.5926 121.315 43.6386 124.666 46.4098C124.666 46.4098 127.888 49.3353 132.37 48.0267C136.841 46.7144 139.853 41.9051 140.308 39.3219C140.308 39.3219 140.308 38.6225 139.737 39.0775ZM126.888 27.0224C129.599 24.9167 131.882 26.2929 131.882 26.2929C135.168 27.8759 135.078 31.7752 135.078 31.7752H124.545C124.681 29.9473 125.521 28.2435 126.888 27.0224ZM80.2429 18.2461V19.0357C84.6499 19.1335 84.7514 23.7698 84.7514 23.7698V41.8863C84.8153 44.8155 84.3566 45.1427 84.3566 45.1427C82.845 47.3762 80.2467 47.1807 80.2467 47.1807V47.771H91.358V47.0792C89.4516 46.9852 88.9703 46.8047 87.8385 45.7969C86.6428 44.729 86.8082 41.6532 86.8082 41.6532L86.8044 26.5486L109.975 58.95V51.8809L85.8982 18.2461H80.2429ZM119.221 46.2444C119.221 46.2444 118.544 45.7819 118.563 43.3979V24.5632L111.708 27.1615V27.8496C111.708 27.8496 114.28 26.8945 114.479 29.2296V44.1387C114.479 44.1387 114.66 45.53 113.806 46.3835C113.009 47.1769 112.558 47.0867 111.704 47.0867V47.7823H121.436V47.0416C121.439 47.034 120.24 47.2296 119.221 46.2444ZM116.344 23.9766C116.987 23.9756 117.602 23.7195 118.056 23.2647C118.509 22.8099 118.763 22.1935 118.762 21.5513C118.761 20.9091 118.505 20.2935 118.05 19.8401C117.595 19.3867 116.979 19.1325 116.337 19.1335C116.019 19.134 115.704 19.1971 115.411 19.3193C115.117 19.4414 114.85 19.6202 114.626 19.8454C114.401 20.0706 114.223 20.3379 114.102 20.6318C113.981 20.9258 113.919 21.2408 113.919 21.5588C113.92 21.8768 113.983 22.1916 114.105 22.4852C114.227 22.7788 114.406 23.0455 114.631 23.27C114.856 23.4945 115.123 23.6725 115.417 23.7937C115.711 23.915 116.026 23.9771 116.344 23.9766Z" fill="#1A3B73"/>
<path d="M147.031 46.2482C147.031 46.2482 146.358 45.7895 146.369 43.4055V12.6924L139.289 15.3584V16.0465C139.289 16.0465 142.094 15.0275 142.289 17.3625V44.1463C142.289 44.1463 142.47 45.53 141.624 46.3836C140.823 47.1808 140.376 47.0905 139.514 47.0905V47.7824H149.246V47.0416C149.246 47.0379 148.05 47.2372 147.031 46.2482ZM184.197 39.0174C184.197 39.0174 182.978 40.9313 182.764 41.0855C182.764 41.0855 180.297 44.402 176.823 44.4621C173.352 44.5223 171.28 42.6084 169.912 39.6228C168.547 36.6372 168.814 33.411 168.814 33.411H184.531C184.531 33.411 183.948 28.5115 180.786 25.8004C177.62 23.0893 174.055 23.9729 173.172 24.2775C172.296 24.5821 169.186 25.4356 166.565 30.4893C166.565 30.4893 164.651 34.2345 165.411 39.5325C165.411 39.5325 165.776 43.5823 169.118 46.3498C169.118 46.3498 172.348 49.2714 176.823 47.9666C181.298 46.6543 184.313 41.8451 184.768 39.2581C184.772 39.2543 184.772 38.5549 184.197 39.0174ZM171.344 26.9547C174.055 24.8528 176.338 26.2253 176.338 26.2253C179.624 27.8083 179.538 31.7039 179.538 31.7039H169.002C169.212 28.6619 171.344 26.9547 171.344 26.9547ZM162.493 37.017C161.763 36.2838 160.981 35.6069 158.251 34.0615C155.439 32.4709 154.818 32.0385 154.119 31.279C153.453 30.5645 152.683 29.459 153.299 27.797C153.299 27.797 153.912 26.3644 155.593 25.9621C157.27 25.5635 158.315 26.0598 158.793 26.2328C159.263 26.4058 161.794 27.8045 162.06 31.6174H162.673V24.6122C162.673 24.6122 161.342 25.7327 159.755 25.0107C159.47 24.8829 158.157 24.1948 155.999 24.3377C154.234 24.4462 152.572 25.2075 151.336 26.4734C150.509 27.3796 149.573 28.5115 149.46 30.7601C149.344 33.0124 150.851 34.5315 150.851 34.5315C150.851 34.5315 151.829 35.5505 153.69 36.7538C155.555 37.9608 158.135 39.5363 158.706 39.9424C159.282 40.341 161.245 41.6759 160.842 43.838C160.842 43.838 160.511 45.9474 158.022 46.4626C158.022 46.4626 155.935 47.1544 153.333 45.5564C150.724 43.9658 150.442 41.4728 150.551 40.0853H149.919V47.0379C149.919 47.0379 150.566 46.5528 151.72 46.9213C152.886 47.3011 153.687 47.8125 155.476 48.0569C157.274 48.3013 158.184 48.1321 159.334 47.9178C160.553 47.6846 162.132 46.6243 162.764 45.8835L163.392 45.1352C163.392 45.1352 164.666 43.3529 164.437 41.1457C164.321 39.5765 163.629 38.1057 162.493 37.017ZM114.321 19.1073L114.329 19.0847V18.2462H103.146V19.0997C104.428 19.0508 105.15 19.2652 105.15 19.2652C106.669 19.7916 106.91 20.4609 107.369 21.2543C107.827 22.044 107.812 24.1497 107.812 24.1497L107.827 37.8254L93.6552 18.2462H88.594L109.892 48.1471V24.2963C109.892 24.2963 109.873 21.7243 110.099 21.2543C110.482 20.4271 110.798 19.7954 112.313 19.2689C112.317 19.2689 113.039 19.0508 114.321 19.1073ZM12.8264 13.6926C10.574 15.0914 10.8372 18.1898 11.7058 20.3782C11.9766 19.9608 12.2548 19.551 12.5519 19.1561C11.7848 17.0504 11.8976 15.2117 12.8264 13.6926Z" fill="#1A3B73"/>
<path d="M4.13295 19.1456C7.13061 12.0402 12.8255 6.41483 19.9671 3.50459C27.1088 0.594352 35.1135 0.63716 42.2236 3.62362C44.4045 4.5411 45.7958 5.19537 48.0556 6.9777C41.9905 -0.0952003 24.6861 -4.29156 11.0592 6.91002C-0.789126 16.6639 -0.886891 31.7347 0.748788 38.1684C2.5988 45.4443 6.83652 52.8745 16.0753 57.5596C20.2604 59.4172 23.543 60 26.6452 60C24.2949 59.6432 22.0017 58.9795 19.8242 58.0259C4.68194 51.5208 -2.41353 34.3368 4.13295 19.1456Z" fill="#1A3B73"/>
<path d="M7.96143 30.7915C9.18272 28.5161 10.5954 26.3487 12.1841 24.3127C11.9538 23.9632 11.7355 23.6057 11.5298 23.2411C10.0104 25.5883 8.81034 28.1274 7.96143 30.7915ZM18.3809 28.4414C18.5505 28.1372 18.726 27.8363 18.9073 27.539C16.7903 25.5987 15.1885 23.7637 14.0642 22.0641C16.4483 19.3754 19.1752 17.0113 22.1749 15.0326C21.8895 14.6355 21.6331 14.2183 21.4078 13.7842C18.1402 15.544 14.1507 19.4095 12.4323 21.9288C13.7145 24.3767 16.5986 27.1254 18.3809 28.4414ZM18.708 30.4155C16.3955 34.3336 14.7974 38.1615 14.1695 41.3952C15.9367 37.8973 17.895 34.4993 20.0354 31.2164C19.5873 30.9589 19.1447 30.6919 18.708 30.4155ZM27.112 19.3831C24.2255 22.4041 21.6495 25.707 19.4225 29.2423C21.8854 31.1788 25.514 33.2657 27.8979 34.4539C25.5745 32.919 23.3294 31.2687 21.1709 29.5093C23.3658 26.2512 25.7791 23.1457 28.3943 20.2141C27.9242 19.9772 27.552 19.6426 27.112 19.3831ZM21.9192 11.6184C22.2952 11.4416 22.6788 11.2724 23.0661 11.1107C22.5622 9.59915 22.7089 8.09507 23.9008 6.70005C21.844 7.61001 21.3665 9.77588 21.9192 11.6184ZM37.0088 12.22C36.7683 12.071 36.5361 11.9091 36.3132 11.7349C33.6848 13.348 30.2856 16.1607 27.8791 18.6085C29.1952 19.6501 31.9401 21.2407 33.1772 21.8385C32.2447 20.9963 30.9775 19.981 29.6464 18.8642C31.9057 16.4427 34.3689 14.2198 37.0088 12.22ZM36.3433 7.68522C36.7945 6.61732 38.7423 6.44436 42.1678 7.44832C39.5244 6.11722 36.7118 5.74496 35.6251 6.63612C34.7076 7.57617 34.6061 9.08024 36.8659 10.8438C38.5768 12.1749 41.2052 13.333 43.4801 13.7466C41.5398 13.0209 35.3807 9.96388 36.3433 7.68522ZM34.403 9.36602C30.2217 9.88492 25.4839 11.4341 22.5885 13.1112C23.5474 14.7882 25.5328 16.751 26.7285 17.7324L27.5144 16.9879C26.3906 15.9735 25.3634 14.857 24.4461 13.6526C27.6288 11.8656 31.0744 10.594 34.655 9.88492C34.5589 9.7181 34.4747 9.5447 34.403 9.36602ZM50.9516 43.1738L39.7688 17.6535H38.8664L29.5223 39.7144C28.6687 41.6923 27.2775 44.9712 26.2434 46.0917C25.435 46.9453 24.6717 47.0355 23.9535 47.0844V47.9379H32.8463V47.0844C31.9025 47.0844 29.793 47.0844 29.793 45.1968C29.793 44.7004 29.9284 44.0687 30.154 43.4897L32.2184 38.2367H43.9877L45.834 42.5458C46.101 43.1738 46.6913 44.6591 46.6913 45.3735C46.6913 47.0355 45.206 47.0844 43.544 47.0844V47.9379H54.9975V47.0844C53.0234 46.9453 52.3955 46.4564 50.9516 43.1738ZM32.9817 36.3904L38.1519 24.0382L43.3635 36.3904H32.9817ZM67.8047 46.5918C62.1419 46.5918 56.7911 42.6812 56.7911 33.1567C56.7911 26.6892 58.769 23.8164 60.5212 22.1093C62.3387 20.3746 64.7472 19.3948 67.2595 19.3681C72.787 19.3681 76.0207 22.9628 77.1412 27.6819H78.1791L77.773 17.5745H76.8329C76.4719 19.0598 74.9904 19.0598 74.7648 19.0598C73.7796 19.0598 70.858 17.5745 66.8609 17.5745C59.13 17.5745 51.5833 23.0117 51.5833 33.0777C51.5833 44.2605 59.3593 48.5772 66.5902 48.5772C74.8551 48.5772 78.7205 42.9595 78.7656 42.8655L77.9572 42.057C76.5659 43.3994 73.3247 46.5918 67.8047 46.5918Z" fill="#1A3B73"/>
</g>
<defs>
<clipPath id="clip0_173_511">
<rect width="207" height="60" fill="white"/>
</clipPath>
</defs>
</svg>
