<svg width="200" height="60" viewBox="0 0 200 60" fill="none" xmlns="http://www.w3.org/2000/svg">
<g clip-path="url(#clip0_206_6342)">
<path d="M118.918 1.82041C122.222 0.197885 123.859 0.410807 123.896 2.05541C123.94 4.19183 123.624 7.03285 123.397 9.08854C122.171 20.2615 120.122 29.3914 119.968 40.8632C125.364 26.8939 129.886 17.1847 135.716 5.22692C137.566 1.41664 138.748 2.12882 140.267 1.45335C146.185 -1.1822 146.405 0.432886 145.634 3.65586C142.763 15.5932 135.414 53.1785 134.291 58.9659C133.968 60.6404 132.148 59.9305 131.678 59.2757C129.571 56.3612 127.192 56.3156 127.456 54.3775C128.778 44.7284 133.535 20.5193 134.776 14.8149C128.455 27.774 121.899 43.9745 118.529 53.1603C117.817 55.1108 116.517 54.9677 115.71 53.5405C114.572 51.5357 112.362 50.5121 111.995 48.143C110.843 40.6108 113.317 26.2537 113.662 17.1708C110.219 27.0928 104.441 46.3561 101.908 55.0594C100.866 58.6605 97.3855 58.073 98.3105 54.5632C102.157 39.9572 110.446 14.1248 114.029 4.83778C114.873 2.6499 117.083 2.72331 118.918 1.82041Z" fill="#CC071E"/>
<path d="M97.9367 0.028541C96.8208 -0.243035 93.5832 1.50425 91.5936 1.84924C90.9623 1.95936 90.3602 2.62738 90.1473 3.1047C86.961 10.4242 84.1052 17.4015 81.6311 23.7577C78.4669 24.298 74.7669 25.0095 70.6263 25.9396C73.5922 18.3316 76.5876 10.8278 79.5095 3.61114C80.9484 0.0578034 77.1603 -0.279865 75.6919 3.31749C73.783 7.9941 70.2077 16.7562 66.2506 26.9689C63.3434 27.6817 60.26 28.4966 57.037 29.4276C54.695 30.1037 54.5997 30.7277 55.6129 32.1322C56.1708 32.9142 57.3234 32.8354 57.8519 33.3926C59.2175 34.8368 60.0471 36.5641 62.4917 36.8256C60.3112 42.6583 58.1308 48.6733 56.156 54.465C54.9153 58.1004 58.4465 58.8441 59.8048 54.9971C61.9925 48.7957 64.2978 42.5194 66.6691 36.2616C68.6439 35.8027 73.4232 34.7734 77.8354 33.816C74.3335 43.4143 72.0282 50.7037 71.1547 54.2519C70.9932 54.9346 71.2648 55.3134 71.4116 55.5917C72.5935 57.3118 73.7168 57.3822 75.2365 59.509C75.6478 60.089 77.028 60.4018 77.4977 58.9738C80.7426 49.1722 84.0831 39.9755 87.1958 31.731C88.4878 31.4483 90.8151 30.8867 92.2393 28.7613C94.7721 24.9892 95.4989 25.7542 96.1084 24.6075C96.8719 23.1678 96.3652 21.8162 93.6637 22.1502C93.6637 22.1502 92.6432 22.2228 90.7564 22.4379C93.7517 14.7257 96.3726 8.18443 98.2594 3.19967C98.9057 1.51156 98.9865 0.27817 97.9367 0.028541Z" fill="#CC071E"/>
<path d="M93.5171 50.0491C94.2145 51.8118 96.395 51.278 95.5654 49.1506C94.721 46.9832 92.6214 40.4589 92.0707 38.357C91.3219 35.5247 94.5668 36.2992 92.9223 38.1508C91.5129 39.7431 90.573 40.3811 87.9669 43.4087C85.4488 46.3314 86.1315 50.1241 88.8259 50.9618C91.8652 51.9073 94.5449 48.5582 96.204 46.101C97.8118 43.7216 96.2553 42.326 94.6329 43.7327C93.5904 44.6371 92.3864 46.026 91.1676 46.7749C90.1766 47.3776 89.3983 46.7301 90.7199 44.911C92.2542 42.8047 93.9721 41.0399 95.2495 39.0495C97.8558 34.9933 92.702 32.6551 90.4849 35.2899C89.2955 36.6944 89.5966 38.0732 89.9196 39.2565C90.4409 41.152 92.3791 47.203 93.5171 50.0491Z" fill="#CC071E"/>
</g>
<defs>
<clipPath id="clip0_206_6342">
<rect width="90.9526" height="60" fill="white" transform="translate(55.0005)"/>
</clipPath>
</defs>
</svg>
