<svg width="242" height="60" viewBox="0 0 242 60" fill="none" xmlns="http://www.w3.org/2000/svg">
<g clip-path="url(#clip0_173_494)">
<path fill-rule="evenodd" clip-rule="evenodd" d="M136.858 10.0777L135.97 12.7005C134.921 10.0223 132.909 9.38077 130.914 9.48511C123.88 9.85226 119.33 16.5111 115.883 25.6033C112.726 36.6472 113.348 44.151 120.514 44.428C122.259 44.495 124.201 43.592 125.949 42.1028L124.399 46.7133C123.447 49.5371 122.017 55.4539 116.693 55.5531H107.499L106.495 58.0084H117.031C125.896 58.0084 130.111 53.3309 132.317 46.8808L144.884 10.1202L136.858 10.0777ZM133.262 20.8189L128.029 36.1796C127.105 38.9273 124.993 40.915 122.901 40.915C118.454 40.915 122.962 28.2828 123.567 26.5811C124.508 23.9338 127.516 12.9904 131.597 12.9904C134.305 12.9904 134.999 15.1404 133.262 20.8189ZM174.491 44.7088C177.367 44.7088 180.107 43.4077 182.402 41.344L181.604 43.7762L189.502 43.8676L201.091 10.0609H193.077L185.249 33.093C184.125 36.405 182.253 40.8687 178.267 40.897C175.371 40.9176 176.84 37.5412 177.915 34.3722L186.145 10.0609H178.042L169.217 35.9709C167.546 40.8931 170.047 44.7088 174.491 44.7088ZM146.798 43.8586L154.136 22.0568C155.263 18.7435 158.201 13.2287 161.545 13.1759C164.046 13.1346 163.009 16.4505 161.936 19.6182L153.729 43.8586H161.833L171.027 16.8486C172.443 12.6876 170.382 9.29059 165.383 9.20815C162.508 9.16048 159.768 10.5118 157.473 12.573L158.271 10.1421L150.372 10.0519L138.784 43.8586H146.798ZM114.949 53.3541L117.54 45.9507H110.872L108.281 53.3541H114.949ZM114.365 19.483C116.742 12.4442 114.019 9.28544 105.743 9.30734C99.8838 9.3228 95.4577 12.7559 93.2233 18.987H98.7731C100.583 13.6667 101.982 11.9946 105.06 12.0074C109.769 12.0242 107.864 15.1391 107.047 17.7619L105.479 22.2784C94.6431 22.8027 90.9786 23.041 87.852 31.2895C87.3129 32.713 86.7943 34.2253 86.3056 35.7905L86.0172 37.5064C85.3668 41.4174 88.1275 44.3842 92.7384 44.2708C95.1448 44.2129 97.5809 42.9543 98.9631 41.648L98.049 43.9179H105.973L112.875 23.9016L114.365 19.483ZM104.553 25.2735L101.258 34.8578C99.8463 38.9608 97.3417 40.9666 95.3258 40.915C94.2901 40.8893 93.191 40.1344 93.447 38.537L97.3016 28.2068C98.3334 25.6999 99.6329 24.6436 104.051 24.6526C104.397 24.6384 104.706 24.8239 104.553 25.2735ZM235.926 9.20815C232.675 9.20815 229.599 10.8725 227.142 13.418C226.241 10.8493 224.251 9.26612 220.671 9.20815C217.483 9.1592 215.098 10.5041 212.875 12.5549L213.826 10.1099L205.797 10.1305L194.175 43.8586H202.28L209.347 22.7344C211.547 16.1594 214.732 12.9375 217.036 13.1166C219.627 13.315 218.968 15.4174 217.538 19.6388L209.331 43.8586H217.34L224.406 22.7344C225.23 20.2018 226.633 17.1178 228.442 15.1301C229.525 13.9372 230.75 13.0818 232.096 13.1166C234.987 13.19 233.708 16.3706 232.585 19.6388L224.272 43.8586H232.373L241.566 16.8666C243.071 12.4416 240.533 9.20815 235.926 9.20815ZM25.5896 9.85741C24.2577 9.85741 23.1755 10.9331 23.1755 12.2612C23.1755 13.5894 24.2577 14.6676 25.5896 14.6676C26.293 14.6676 44.6205 14.6753 44.6205 14.6753L45.4222 16.7288C45.4222 16.7288 34.5503 16.7249 33.8754 16.7249C32.5345 16.7249 31.4445 17.807 31.4445 19.1467C31.4445 20.4826 32.5345 21.5686 33.8754 21.5686C34.5413 21.5686 49.4875 21.5506 49.4875 21.5506L41.922 43.8586H50.0267L57.0557 22.8465C59.347 15.979 62.3055 13.0973 64.7816 13.1166C67.797 13.1385 66.1678 16.9954 65.4269 19.1751L57.0725 43.8586H65.0816L72.1532 22.7344C73.5769 18.3493 76.3905 13.163 79.8417 13.1166C83.0174 13.0702 81.0235 17.6305 80.4882 19.188L72.0175 43.8586H80.1223L89.3403 16.7713C90.9088 12.2445 88.165 9.20815 83.6678 9.20815C80.4222 9.20815 77.3461 10.8725 74.8842 13.418C73.9842 10.8493 71.9968 9.26612 68.4138 9.20815C66.1109 9.17337 64.1028 9.95789 62.2305 11.0683C59.9069 6.25684 54.202 2.99121 48.894 2.99121H17.5482C16.2073 2.99121 15.125 4.06816 15.125 5.40533C15.125 6.73735 16.2073 7.81687 17.5482 7.81687C18.3136 7.81687 41.922 7.81043 41.922 7.81043L42.7482 9.86128C42.7482 9.86128 26.1624 9.85741 25.5896 9.85741Z" fill="#B6004B"/>
</g>
<defs>
<clipPath id="clip0_173_494">
<rect width="242" height="60" fill="white"/>
</clipPath>
</defs>
</svg>
