<svg width="117" height="118" viewBox="0 0 117 118" fill="none" xmlns="http://www.w3.org/2000/svg">
<ellipse cx="58.4799" cy="58.6223" rx="58.4799" ry="58.6223" transform="matrix(-1 0 0 1 117 0)" fill="white"/>
<path d="M58.5205 0.5C26.5003 0.5 0.540173 26.521 0.540039 58.6221C0.540039 90.7233 26.5003 116.745 58.5205 116.745C90.5406 116.745 116.5 90.7232 116.5 58.6221C116.5 26.5211 90.5405 0.500203 58.5205 0.5Z" stroke="#111111" stroke-opacity="0.8"/>
<path d="M32.2461 60.0508L27.7539 58.9766L29.375 44.5625H45.3516V49.1133H34.0039L33.3008 55.4219C33.6784 55.2005 34.2513 54.9661 35.0195 54.7188C35.7878 54.4583 36.6471 54.3281 37.5977 54.3281C38.9779 54.3281 40.2018 54.543 41.2695 54.9727C42.3372 55.4023 43.2422 56.0273 43.9844 56.8477C44.7396 57.668 45.3125 58.6706 45.7031 59.8555C46.0938 61.0404 46.2891 62.3815 46.2891 63.8789C46.2891 65.1419 46.0938 66.3464 45.7031 67.4922C45.3125 68.625 44.7201 69.6406 43.9258 70.5391C43.1315 71.4245 42.1354 72.1211 40.9375 72.6289C39.7396 73.1367 38.3203 73.3906 36.6797 73.3906C35.4557 73.3906 34.2708 73.2083 33.125 72.8438C31.9922 72.4792 30.9701 71.9388 30.0586 71.2227C29.1602 70.5065 28.4375 69.6406 27.8906 68.625C27.3568 67.5964 27.0768 66.4245 27.0508 65.1094H32.6367C32.7148 65.9167 32.9232 66.6133 33.2617 67.1992C33.6133 67.7721 34.0755 68.2148 34.6484 68.5273C35.2214 68.8398 35.8919 68.9961 36.6602 68.9961C37.3763 68.9961 37.9883 68.8594 38.4961 68.5859C39.0039 68.3125 39.4141 67.9349 39.7266 67.4531C40.0391 66.9583 40.2669 66.3854 40.4102 65.7344C40.5664 65.0703 40.6445 64.3542 40.6445 63.5859C40.6445 62.8177 40.5534 62.1211 40.3711 61.4961C40.1888 60.8711 39.9089 60.3307 39.5312 59.875C39.1536 59.4193 38.6719 59.0677 38.0859 58.8203C37.513 58.5729 36.8424 58.4492 36.0742 58.4492C35.0326 58.4492 34.2253 58.612 33.6523 58.9375C33.0924 59.263 32.6237 59.6341 32.2461 60.0508ZM69.0625 56.2812V61.2031C69.0625 63.3385 68.8346 65.181 68.3789 66.7305C67.9232 68.2669 67.2656 69.5299 66.4062 70.5195C65.5599 71.4961 64.5508 72.2188 63.3789 72.6875C62.207 73.1562 60.9049 73.3906 59.4727 73.3906C58.3268 73.3906 57.2591 73.2474 56.2695 72.9609C55.2799 72.6615 54.388 72.1992 53.5938 71.5742C52.8125 70.9492 52.1354 70.1615 51.5625 69.2109C51.0026 68.2474 50.5729 67.1016 50.2734 65.7734C49.974 64.4453 49.8242 62.9219 49.8242 61.2031V56.2812C49.8242 54.1458 50.0521 52.3164 50.5078 50.793C50.9766 49.2565 51.6341 48 52.4805 47.0234C53.3398 46.0469 54.3555 45.3307 55.5273 44.875C56.6992 44.4062 58.0013 44.1719 59.4336 44.1719C60.5794 44.1719 61.6406 44.3216 62.6172 44.6211C63.6068 44.9076 64.4987 45.3568 65.293 45.9688C66.0872 46.5807 66.7643 47.3685 67.3242 48.332C67.8841 49.2826 68.3138 50.4219 68.6133 51.75C68.9128 53.0651 69.0625 54.5755 69.0625 56.2812ZM63.418 61.9453V55.5195C63.418 54.4909 63.3594 53.5924 63.2422 52.8242C63.138 52.056 62.9753 51.4049 62.7539 50.8711C62.5326 50.3242 62.2591 49.8815 61.9336 49.543C61.6081 49.2044 61.237 48.957 60.8203 48.8008C60.4036 48.6445 59.9414 48.5664 59.4336 48.5664C58.7956 48.5664 58.2292 48.6901 57.7344 48.9375C57.2526 49.1849 56.8424 49.582 56.5039 50.1289C56.1654 50.6628 55.9049 51.3789 55.7227 52.2773C55.5534 53.1628 55.4688 54.2435 55.4688 55.5195V61.9453C55.4688 62.974 55.5208 63.8789 55.625 64.6602C55.7422 65.4414 55.9115 66.112 56.1328 66.6719C56.3672 67.2188 56.6406 67.668 56.9531 68.0195C57.2786 68.3581 57.6497 68.6055 58.0664 68.7617C58.4961 68.918 58.9648 68.9961 59.4727 68.9961C60.0977 68.9961 60.651 68.8724 61.1328 68.625C61.6276 68.3646 62.0443 67.9609 62.3828 67.4141C62.7344 66.8542 62.9948 66.125 63.1641 65.2266C63.3333 64.3281 63.418 63.2344 63.418 61.9453ZM91.5234 57.1602V62.0625H72.0312V57.1602H91.5234ZM84.4531 49.4453V70.1484H79.1211V49.4453H84.4531Z" fill="#262626"/>
</svg>
