<svg width="48" height="48" viewBox="0 0 48 48" fill="none" xmlns="http://www.w3.org/2000/svg">
<g clip-path="url(#clip0_198_14533)">
<path d="M1.02418 23.7127C1.02305 27.7456 2.08505 31.6835 4.10443 35.1544L0.831055 47.0134L13.0621 43.8312C16.445 45.6585 20.2353 46.6161 24.0871 46.6163H24.0972C36.8125 46.6163 47.1631 36.3497 47.1685 23.7308C47.1709 17.616 44.7732 11.866 40.4168 7.54006C36.0612 3.21448 30.2684 0.831038 24.0962 0.828247C11.3794 0.828247 1.02962 11.0943 1.02437 23.7127" fill="url(#paint0_linear_198_14533)"/>
<path d="M0.200625 23.7053C0.199313 27.8834 1.29937 31.962 3.39075 35.5572L0 47.8413L12.6696 44.5451C16.1604 46.4337 20.0908 47.4294 24.0902 47.4309H24.1005C37.272 47.4309 47.9944 36.795 48 23.7243C48.0023 17.3898 45.5182 11.4331 41.0062 6.95219C36.4937 2.47181 30.4937 0.00260465 24.1005 0C10.9267 0 0.205875 10.6344 0.200625 23.7053ZM7.74581 34.9381L7.27275 34.1929C5.28412 31.0554 4.2345 27.4298 4.236 23.7068C4.24012 12.8426 13.1509 4.00372 24.108 4.00372C29.4143 4.00595 34.401 6.05842 38.1517 9.78233C41.9023 13.5066 43.9661 18.4573 43.9648 23.7228C43.9599 34.587 35.049 43.427 24.1005 43.427H24.0926C20.5277 43.4251 17.0314 42.4752 13.9822 40.68L13.2566 40.253L5.73825 42.2089L7.74581 34.9381Z" fill="url(#paint1_linear_198_14533)"/>
<path d="M18.1267 13.7949C17.6793 12.8083 17.2085 12.7884 16.7831 12.7711C16.4347 12.7562 16.0364 12.7573 15.6386 12.7573C15.2403 12.7573 14.5932 12.906 14.0463 13.4986C13.4988 14.0917 11.9561 15.525 11.9561 18.4401C11.9561 21.3553 14.096 24.1728 14.3943 24.5685C14.693 24.9635 18.5255 31.1373 24.5952 33.5123C29.6397 35.4861 30.6663 35.0935 31.7611 34.9946C32.8561 34.8959 35.2944 33.5616 35.7918 32.178C36.2896 30.7946 36.2896 29.6087 36.1404 29.3609C35.9911 29.114 35.5929 28.9657 34.9957 28.6695C34.3985 28.3733 31.4624 26.9397 30.9151 26.7419C30.3676 26.5443 29.9696 26.4457 29.5713 27.039C29.1731 27.6314 28.0295 28.9657 27.6809 29.3609C27.3327 29.757 26.9842 29.8063 26.3872 29.5099C25.7896 29.2126 23.8664 28.5877 21.5847 26.5693C19.8095 24.9986 18.611 23.0591 18.2626 22.4658C17.9142 21.8734 18.2253 21.5523 18.5247 21.2571C18.7931 20.9916 19.1221 20.5652 19.421 20.2193C19.7187 19.8733 19.8181 19.6264 20.0172 19.2312C20.2166 18.8357 20.1168 18.4896 19.9677 18.1933C19.8181 17.8969 18.6577 14.9665 18.1267 13.7949Z" fill="white"/>
</g>
<defs>
<linearGradient id="paint0_linear_198_14533" x1="2317.7" y1="4619.34" x2="2317.7" y2="0.828247" gradientUnits="userSpaceOnUse">
<stop stop-color="#1FAF38"/>
<stop offset="1" stop-color="#60D669"/>
</linearGradient>
<linearGradient id="paint1_linear_198_14533" x1="2400" y1="4784.13" x2="2400" y2="0" gradientUnits="userSpaceOnUse">
<stop stop-color="#F9F9F9"/>
<stop offset="1" stop-color="white"/>
</linearGradient>
<clipPath id="clip0_198_14533">
<rect width="48" height="48" fill="white"/>
</clipPath>
</defs>
</svg>
